# This file uses centimeters as units for non-parametric coordinates.

g default
v -0.246594 0.003000 0.149606
v -0.004555 0.003000 0.149606
v -0.004555 0.025040 0.149606
v -0.246594 0.025040 0.149606
v -0.009110 0.003000 0.003000
v -0.009110 0.025040 0.003000
v -0.242039 0.003000 0.003000
v -0.242039 0.025040 0.003000
v -0.251149 0.000723 0.153439
v -0.250426 0.000000 0.153439
v -0.250426 0.000723 0.154162
v -0.000723 0.000723 0.154162
v -0.000723 0.000000 0.153439
v 0.000000 0.000723 0.153439
v -0.250426 0.027317 0.154162
v -0.250426 0.028040 0.153439
v -0.251149 0.027317 0.153439
v 0.000000 0.027317 0.153439
v -0.000723 0.028040 0.153439
v -0.000723 0.027317 0.154162
v -0.250426 0.028040 0.000723
v -0.250426 0.027317 0.000000
v -0.251149 0.027317 0.000723
v -0.000723 0.027317 0.000000
v -0.000723 0.028040 0.000723
v 0.000000 0.027317 0.000723
v -0.251149 0.001500 0.000750
v -0.250441 0.000708 0.000000
v -0.250455 0.000000 0.000694
v -0.251149 0.000750 0.001500
v 0.000000 0.000750 0.001500
v -0.000708 0.000000 0.000708
v -0.000694 0.000694 0.000000
v 0.000000 0.001500 0.000750
v -0.251149 0.002277 0.153439
v -0.250426 0.002277 0.154162
v -0.250426 0.003000 0.153439
v -0.000723 0.002277 0.154162
v 0.000000 0.002277 0.153439
v -0.000723 0.003000 0.153439
v 0.000000 0.025763 0.153439
v -0.000723 0.025763 0.154162
v -0.000723 0.025040 0.153439
v -0.250426 0.025763 0.154162
v -0.251149 0.025763 0.153439
v -0.250426 0.025040 0.153439
v 0.000000 0.002270 0.003000
v 0.000000 0.003000 0.002263
v -0.000701 0.003000 0.003000
v 0.000000 0.025763 0.002277
v -0.000723 0.025040 0.003000
v -0.251149 0.003000 0.002270
v -0.251149 0.002263 0.003000
v -0.250448 0.003000 0.003000
v -0.251149 0.025763 0.002277
v -0.250426 0.025040 0.003000
vt 0.373804 0.000000
vt 0.375000 0.998828
vt 0.375000 0.752432
vt 0.375720 0.998828
vt 0.624280 1.000000
vt 0.624280 0.998828
vt 0.625000 0.752432
vt 0.375720 0.250000
vt 0.375720 0.251172
vt 0.375000 0.498828
vt 0.626196 0.250000
vt 0.624280 0.250000
vt 0.625000 0.251172
vt 0.375720 0.498828
vt 0.624280 0.498828
vt 0.375000 0.506446
vt 0.375720 0.506446
vt 0.375000 0.736628
vt 0.625000 0.506446
vt 0.126216 0.000000
vt 0.375705 0.743684
vt 0.624309 0.743813
vt 0.624295 0.751149
vt 0.875000 0.006686
vt 0.126195 0.000000
vt 0.375720 0.000000
vt 0.624280 0.000000
vt 0.626196 0.000000
vt 0.873844 0.000000
vt 0.624280 0.250000
vt 0.375720 0.250000
vt 0.373804 0.250000
vt 0.875000 0.006571
vt 0.624280 0.251172
vt 0.624280 0.506446
vt 0.375691 0.751125
vt 0.375720 0.000000
vt 0.624280 0.000000
vt 0.626196 0.000000
vt 0.873776 0.000000
vt 0.875000 0.250000
vt 0.626196 0.250000
vt 0.875000 0.250000
vt 0.373804 0.000000
vt 0.373804 0.250000
vt 0.125000 0.250000
vt 0.125000 0.008506
vt 0.125000 0.008280
vt 0.125000 0.250000
vt 0.625000 0.000000
vt 0.375000 0.000000
vt 0.375000 0.250000
vt 0.625000 0.250000
vt 0.875000 0.000000
vt 0.625000 0.000000
vt 0.875000 0.250000
vt 0.875000 0.000000
vt 0.625000 0.250000
vt 0.875000 0.250000
vt 0.375000 0.000000
vt 0.125000 0.000000
vt 0.125000 0.250000
vt 0.375000 0.250000
vt 0.125000 0.000000
vt 0.125000 0.250000
vt 0.375720 1.000000
vt 0.625000 0.998828
vt 0.375000 0.251172
vt 0.625000 0.498828
vt 0.375000 0.743314
vt 0.625000 0.743314
vt 0.625000 0.736628
vn 0.000000 0.000000 1.000000
vn 0.000000 0.000000 1.000000
vn 0.000000 0.000000 1.000000
vn 0.000000 0.000000 1.000000
vn 0.999518 0.000000 -0.031055
vn 0.999518 0.000000 -0.031055
vn 0.999518 0.000000 -0.031055
vn 0.999518 0.000000 -0.031055
vn -0.999518 0.000000 -0.031056
vn -0.999518 0.000000 -0.031056
vn -0.999518 0.000000 -0.031056
vn -0.999518 0.000000 -0.031056
vn -0.707125 0.000000 0.707088
vn -0.707125 0.000000 0.707088
vn -0.707125 0.000000 0.707088
vn -0.707125 0.000000 0.707088
vn -0.720668 -0.693280 0.000007
vn -0.720668 -0.693280 0.000007
vn -0.721940 -0.691952 -0.002266
vn -0.723906 -0.689874 -0.005800
vn 0.000000 -0.707124 0.707089
vn 0.000000 -0.707124 0.707089
vn 0.000000 -0.707124 0.707089
vn 0.000000 -0.707124 0.707089
vn 0.707125 0.000000 0.707088
vn 0.707125 0.000000 0.707088
vn 0.707125 0.000000 0.707088
vn 0.707125 0.000000 0.707088
vn 0.717156 -0.696913 -0.000027
vn 0.717156 -0.696913 -0.000027
vn 0.720292 -0.693649 -0.005520
vn 0.718425 -0.695601 -0.002242
vn -0.707125 0.000000 0.707088
vn -0.707125 0.000000 0.707088
vn -0.707125 0.000000 0.707088
vn -0.707125 0.000000 0.707088
vn 0.000000 0.707110 0.707104
vn 0.000000 0.707110 0.707104
vn 0.000000 0.707110 0.707104
vn 0.000000 0.707110 0.707104
vn -0.707116 0.707097 -0.000001
vn -0.707116 0.707097 -0.000001
vn -0.707116 0.707097 -0.000001
vn -0.707116 0.707097 -0.000001
vn 0.707125 0.000000 0.707088
vn 0.707125 0.000000 0.707088
vn 0.707125 0.000000 0.707088
vn 0.707125 0.000000 0.707088
vn 0.707104 0.707109 0.000000
vn 0.707104 0.707109 0.000000
vn 0.707104 0.707109 0.000000
vn 0.707104 0.707109 0.000000
vn 0.000000 0.707109 -0.707104
vn 0.000000 0.707109 -0.707104
vn 0.000000 0.707109 -0.707104
vn 0.000000 0.707109 -0.707104
vn -0.717181 -0.000160 -0.696887
vn -0.717181 -0.000160 -0.696887
vn -0.733878 -0.030183 -0.678610
vn -0.724294 -0.012712 -0.689374
vn 0.720676 0.000043 -0.693272
vn 0.720676 0.000043 -0.693272
vn 0.727808 -0.012847 -0.685661
vn 0.737861 -0.031661 -0.674210
vn -1.000000 -0.000001 0.000000
vn -1.000000 0.000005 -0.000001
vn -1.000000 0.000005 -0.000001
vn -1.000000 -0.000001 0.000000
vn 0.000000 -0.707109 -0.707104
vn 0.000000 -0.707109 -0.707104
vn 0.000000 -0.707109 -0.707104
vn 0.000000 -0.707109 -0.707104
vn 1.000000 0.000000 0.000000
vn 1.000000 0.000000 0.000000
vn 1.000000 0.000000 0.000000
vn 1.000000 0.000000 0.000000
vn -0.715839 0.698265 0.000019
vn -0.715839 0.698265 0.000019
vn -0.715840 0.698265 0.000019
vn -0.715839 0.698265 0.000019
vn 0.000000 0.707124 0.707089
vn 0.000000 0.707124 0.707089
vn 0.000000 0.707124 0.707089
vn 0.000000 0.707124 0.707089
vn 0.714171 0.699971 0.000036
vn 0.714171 0.699971 0.000036
vn 0.714171 0.699971 0.000036
vn 0.714171 0.699971 0.000036
vn 0.707107 -0.707106 0.000000
vn 0.707107 -0.707106 0.000000
vn 0.707107 -0.707106 0.000000
vn 0.707107 -0.707106 0.000000
vn 0.000000 -0.707124 0.707089
vn 0.000000 -0.707124 0.707089
vn 0.000000 -0.707124 0.707089
vn 0.000000 -0.707124 0.707089
vn -0.707107 -0.707106 -0.000001
vn -0.707107 -0.707106 -0.000001
vn -0.707107 -0.707106 -0.000001
vn -0.707107 -0.707106 -0.000001
vn 0.715804 0.000131 0.698301
vn 0.715804 0.000131 0.698301
vn 0.715804 0.000131 0.698301
vn 0.715804 0.000131 0.698301
vn -0.714108 0.000238 0.700035
vn -0.714108 0.000238 0.700035
vn -0.714108 0.000238 0.700035
vn -0.714108 0.000238 0.700035
vn 0.000000 1.000000 -0.000000
vn 0.000000 1.000000 -0.000000
vn 0.000000 1.000000 -0.000000
vn 0.000000 1.000000 -0.000000
vn 0.000000 0.000000 -1.000000
vn 0.000000 0.000000 -1.000000
vn 0.000000 0.000000 -1.000000
vn 0.000000 0.000000 -1.000000
vn 0.000000 -1.000000 0.000000
vn 0.000000 -1.000000 0.000000
vn 0.000000 -1.000000 0.000000
vn 0.000000 -1.000000 0.000000
vn 0.000000 0.000000 1.000000
vn 0.000000 0.000000 1.000000
vn 0.000000 0.000000 1.000000
vn 0.000000 0.000000 1.000000
vn 0.000000 0.000000 1.000000
vn 0.000000 0.000000 1.000000
vn 0.000000 0.000000 1.000000
vn 0.000000 0.000000 1.000000
vn 1.000000 0.000000 0.000000
vn 1.000000 0.000000 0.000000
vn 1.000000 0.000000 0.000000
vn 1.000000 0.000000 0.000000
vn 1.000000 0.000000 0.000000
vn 1.000000 0.000000 0.000000
vn -1.000000 0.000005 -0.000001
vn -1.000000 0.000005 -0.000001
vn -1.000000 0.000000 -0.000001
vn -1.000000 0.000000 -0.000001
vn -1.000000 0.000000 -0.000001
vn -1.000000 0.000000 -0.000001
vn 0.000000 1.000000 -0.000000
vn 0.000000 1.000000 -0.000000
vn 0.000000 1.000000 -0.000000
vn 0.000000 1.000000 -0.000000
vn 0.000000 -1.000000 -0.000000
vn 0.000000 -1.000000 0.000000
vn 0.000000 -1.000000 0.000000
vn 0.000000 -1.000000 -0.000000
vn 0.000000 1.000000 -0.000000
vn 0.000000 1.000000 -0.000000
vn 0.000000 0.000000 1.000000
vn 0.000000 0.000000 1.000000
vn 0.000000 0.000000 1.000000
vn 0.000000 0.000000 1.000000
vn 0.000000 -1.000000 -0.000001
vn 0.000000 -1.000000 -0.000001
vn 0.000000 1.000000 0.000000
vn 0.000000 1.000000 0.000000
vn 0.000000 -1.000000 0.000000
vn 0.000000 -1.000000 0.000000
vn 0.000000 0.000000 1.000000
vn 0.000000 0.000000 1.000000
vn 0.000000 0.000000 1.000000
vn 0.000000 0.000000 1.000000
vn -0.577350 -0.577350 0.577350
vn -0.577350 -0.577350 0.577350
vn -0.577350 -0.577350 0.577350
vn 0.577372 -0.577307 0.577372
vn 0.577372 -0.577307 0.577372
vn 0.577372 -0.577307 0.577372
vn -0.577372 0.577372 0.577307
vn -0.577372 0.577372 0.577307
vn -0.577372 0.577372 0.577307
vn 0.577393 0.577329 0.577329
vn 0.577393 0.577329 0.577329
vn 0.577393 0.577329 0.577329
vn -0.577372 0.577372 -0.577307
vn -0.577372 0.577372 -0.577307
vn -0.577372 0.577372 -0.577307
vn 0.577372 0.577372 -0.577307
vn 0.577372 0.577372 -0.577307
vn 0.577372 0.577372 -0.577307
vn -0.577350 0.577350 0.577350
vn -0.577350 0.577350 0.577350
vn -0.577350 0.577350 0.577350
vn 0.577372 0.577307 0.577372
vn 0.577372 0.577307 0.577372
vn 0.577372 0.577307 0.577372
vn 0.577350 -0.577286 0.577415
vn 0.577350 -0.577286 0.577415
vn 0.577350 -0.577286 0.577415
vn -0.577329 -0.577329 0.577393
vn -0.577329 -0.577329 0.577393
vn -0.577329 -0.577329 0.577393
vn 0.594673 0.571187 0.565782
vn 0.594673 0.571187 0.565782
vn 0.594673 0.571187 0.565782
vn -0.594651 0.565761 0.571230
vn -0.594651 0.565761 0.571230
vn -0.594651 0.565761 0.571230
s off
g pCube1
f 1/51/1 2/55/2 3/53/3 4/63/4
f 2/55/5 5/57/6 6/59/7 3/53/8
f 7/61/9 1/51/10 4/63/11 8/65/12
f 9/1/13 11/37/14 36/26/15 35/44/16
s 1
f 10/4/17 9/2/18 30/3/19 29/36/20
s off
f 11/66/21 10/4/22 13/6/23 12/5/24
f 12/38/25 14/39/26 39/28/27 38/27/28
s 2
f 14/67/29 13/6/30 32/23/31 31/7/32
s off
f 15/8/33 17/45/34 45/32/35 44/31/36
f 16/9/37 15/8/38 20/12/39 19/34/40
f 17/68/41 16/9/42 21/14/43 23/10/44
f 18/11/45 20/12/46 42/30/47 41/42/48
f 19/34/49 18/13/50 26/69/51 25/15/52
f 22/17/53 21/14/54 25/15/55 24/35/56
s 1
f 23/16/57 22/17/58 28/21/59 27/18/60
s 2
f 24/35/61 26/19/62 34/72/63 33/22/64
s 3
f 27/47/65 30/20/66 53/25/67 52/48/68
s off
f 29/36/69 28/21/70 33/22/71 32/23/72
s 4
f 31/40/73 34/24/74 48/33/75 47/29/76
s off
f 35/44/77 37/60/78 54/64/79 53/25/80
f 37/60/81 36/26/82 38/27/83 40/50/84
f 40/50/85 39/28/86 47/29/87 49/54/88
f 41/42/89 43/58/90 51/56/91 50/43/92
f 43/58/93 42/30/94 44/31/95 46/52/96
f 46/52/97 45/32/98 55/49/99 56/62/100
f 49/54/101 48/33/102 50/43/103 51/56/104
f 52/48/105 54/64/106 56/62/107 55/49/108
f 16/9/109 19/34/110 25/15/111 21/14/112
f 22/17/113 24/35/114 33/22/115 28/21/116
f 29/36/117 32/23/118 13/6/119 10/4/120
f 11/37/121 12/38/122 38/27/123 36/26/124
f 20/12/125 15/8/126 44/31/127 42/30/128
s 4
f 14/39/129 31/40/73 47/29/76 39/28/130
f 34/24/74 26/41/131 50/43/132 48/33/75
f 26/41/131 18/11/133 41/42/134 50/43/132
s 3
f 30/20/66 9/1/135 35/44/136 53/25/67
f 17/45/137 23/46/138 55/49/139 45/32/140
f 23/46/138 27/47/65 52/48/68 55/49/139
s 5
f 37/60/141 40/50/142 2/55/143 1/51/144
s 6
f 43/58/145 46/52/146 4/63/147 3/53/148
s 5
f 40/50/142 49/54/149 5/57/150 2/55/143
s off
f 49/54/151 51/56/152 6/59/153 5/57/154
s 6
f 51/56/155 43/58/145 3/53/148 6/59/156
s 5
f 54/64/157 37/60/141 1/51/144 7/61/158
s 6
f 46/52/146 56/62/159 8/65/160 4/63/147
s off
f 56/62/161 54/64/162 7/61/163 8/65/164
f 9/2/165 10/4/166 11/66/167
f 12/5/168 13/6/169 14/67/170
f 15/8/171 16/9/172 17/68/173
f 18/13/174 19/34/175 20/12/176
f 21/14/177 22/17/178 23/10/179
f 24/35/180 25/15/181 26/69/182
s 1
f 27/18/60 28/21/59 29/36/20 30/70/19
s 2
f 31/71/32 32/23/31 33/22/64 34/72/63
s off
f 35/44/183 36/26/184 37/60/185
f 38/27/186 39/28/187 40/50/188
f 41/42/189 42/30/190 43/58/191
f 44/31/192 45/32/193 46/52/194
f 47/29/195 48/33/196 49/54/197
f 52/48/198 53/25/199 54/64/200
