# This file uses centimeters as units for non-parametric coordinates.

g default
v -0.251149 0.000000 0.154162
v 0.000000 0.000000 0.154162
v -0.251149 0.028040 0.154162
v 0.000000 0.028040 0.154162
v -0.251149 0.000000 0.000226
v 0.000000 0.000000 0.000226
v -0.251149 0.000000 -0.153709
v 0.000000 0.000000 -0.153709
v -0.251149 0.028040 -0.153709
v 0.000000 0.028040 -0.153709
v -0.251149 0.000570 0.154162
v 0.000000 0.000570 0.154162
v 0.000000 0.000570 -0.153709
v -0.251149 0.000570 -0.153709
v -0.261852 -0.000000 0.161110
v -0.262249 0.000164 0.161507
v -0.262413 0.000561 0.161671
v 0.011264 0.000561 0.161671
v 0.011100 0.000164 0.161507
v 0.010703 -0.000000 0.161110
v 0.010703 0.002288 0.161110
v 0.011100 0.002288 0.161507
v 0.011264 0.002288 0.161671
v -0.262413 0.002288 0.161671
v -0.262249 0.002288 0.161507
v -0.261852 0.002288 0.161110
v 0.011264 0.000561 0.000226
v 0.011100 0.000164 0.000226
v 0.010703 0.000000 0.000226
v 0.010703 0.002288 0.000226
v 0.011100 0.002288 0.000226
v 0.011264 0.002288 0.000226
v 0.010703 0.002288 -0.160657
v 0.011100 0.002288 -0.161054
v 0.011264 0.002288 -0.161218
v 0.011264 0.000561 -0.161218
v 0.011100 0.000164 -0.161054
v 0.010703 0.000000 -0.160657
v -0.261852 0.002288 -0.160657
v -0.262249 0.002288 -0.161054
v -0.262413 0.002288 -0.161218
v -0.262413 0.000561 -0.161218
v -0.262249 0.000164 -0.161054
v -0.261852 0.000000 -0.160657
v -0.261852 0.002288 0.000226
v -0.262249 0.002288 0.000226
v -0.262413 0.002288 0.000226
v -0.262413 0.000561 0.000226
v -0.262249 0.000164 0.000226
v -0.261852 0.000000 0.000226
v -0.251149 0.025350 0.004473
v 0.000000 0.025350 0.004473
v 0.000000 0.000570 0.003033
v 0.010703 0.002288 0.002150
v 0.011100 0.002288 0.002155
v 0.011264 0.002288 0.002157
v 0.011264 0.000561 0.002157
v 0.011100 0.000164 0.002155
v 0.010703 0.000000 0.002150
v 0.000000 0.000000 0.002067
v -0.251149 0.000000 0.002067
v -0.261852 0.000000 0.002150
v -0.262249 0.000164 0.002155
v -0.262413 0.000561 0.002157
v -0.262413 0.002288 0.002157
v -0.262249 0.002288 0.002155
v -0.261852 0.002288 0.002150
v -0.251149 0.000570 0.003033
v 0.000000 0.025350 -0.004020
v -0.251149 0.025350 -0.004020
v -0.251149 0.000570 -0.002580
v -0.261852 0.002288 -0.001697
v -0.262249 0.002288 -0.001702
v -0.262413 0.002288 -0.001704
v -0.262413 0.000561 -0.001704
v -0.262249 0.000164 -0.001702
v -0.261852 0.000000 -0.001697
v -0.251149 0.000000 -0.001614
v 0.000000 0.000000 -0.001614
v 0.010703 0.000000 -0.001697
v 0.011100 0.000164 -0.001702
v 0.011264 0.000561 -0.001704
v 0.011264 0.002288 -0.001704
v 0.011100 0.002288 -0.001702
v 0.010703 0.002288 -0.001697
v 0.000000 0.000570 -0.002580
v -0.251149 0.017159 0.001515
v -0.251149 0.017010 0.000779
v -0.251149 0.017010 -0.000326
v -0.251149 0.017159 -0.001062
v 0.000000 0.017159 0.001515
v 0.000000 0.017010 0.000779
v 0.000000 0.017010 -0.000326
v 0.000000 0.017159 -0.001062
v 0.000000 0.000570 0.001515
v 0.001288 0.000872 0.000226
v 0.000000 0.000570 -0.001062
v 0.000000 0.000570 -0.000203
v 0.000000 0.000570 0.000656
v -0.251149 0.000570 -0.001062
v -0.252437 0.000570 0.000226
v -0.251149 0.000570 0.001515
v -0.251149 0.000570 0.000656
v -0.251149 0.000570 -0.000203
v 0.000000 0.028040 -0.007506
v -0.251149 0.028040 -0.007506
v -0.251149 0.000570 -0.007506
v -0.261852 0.002288 -0.007855
v -0.262249 0.002288 -0.007875
v -0.262413 0.002288 -0.007883
v -0.262413 0.000561 -0.007883
v -0.262249 0.000164 -0.007875
v -0.261852 0.000000 -0.007855
v -0.251149 0.000000 -0.007506
v 0.000000 0.000000 -0.007506
v 0.010703 0.000000 -0.007855
v 0.011100 0.000164 -0.007875
v 0.011264 0.000561 -0.007883
v 0.011264 0.002288 -0.007883
v 0.011100 0.002288 -0.007875
v 0.010703 0.002288 -0.007855
v 0.000000 0.000570 -0.007506
v -0.251149 0.028040 0.007959
v 0.000000 0.028040 0.007959
v 0.000000 0.000570 0.007959
v 0.010703 0.002288 0.008308
v 0.011100 0.002288 0.008328
v 0.011264 0.002288 0.008336
v 0.011264 0.000561 0.008336
v 0.011100 0.000164 0.008328
v 0.010703 0.000000 0.008308
v 0.000000 0.000000 0.007959
v -0.251149 0.000000 0.007959
v -0.261852 0.000000 0.008308
v -0.262249 0.000164 0.008328
v -0.262413 0.000561 0.008336
v -0.262413 0.002288 0.008336
v -0.262249 0.002288 0.008328
v -0.261852 0.002288 0.008308
v -0.251149 0.000570 0.007959
vt 0.375000 0.250000
vt 0.625000 0.250000
vt 0.375000 1.000000
vt 0.625000 1.000000
vt 0.625000 0.750367
vt 0.625000 0.250000
vt 0.375000 0.250000
vt 0.375000 0.750367
vt 0.625000 1.000000
vt 0.375000 1.000000
vt 0.625000 0.004999
vt 0.375000 0.020001
vt 0.874633 0.004999
vt 0.625000 0.020001
vt 0.625000 0.004999
vt 0.874633 0.020001
vt 0.375000 0.004999
vt 0.625000 0.020001
vt 0.375000 0.020000
vt 0.125367 0.004999
vt 0.125367 0.020001
vt 0.375000 0.004999
vt 0.625000 0.000000
vt 0.374711 0.000000
vt 0.375000 0.025000
vt 0.625289 0.025000
vt 0.874633 0.000000
vt 0.625289 0.000000
vt 0.625000 0.025000
vt 0.625289 0.025000
vt 0.625000 0.000000
vt 0.874633 0.000000
vt 0.625000 0.025000
vt 0.374711 0.025000
vt 0.375000 0.000000
vt 0.625289 0.000000
vt 0.375000 0.025000
vt 0.125367 0.000000
vt 0.374711 0.000000
vt 0.374711 0.025000
vt 0.375000 0.000000
vt 0.125367 0.000000
vt 0.375000 0.000000
vt 0.625000 0.000000
vt 0.625000 0.025000
vt 0.375000 0.025000
vt 0.874633 0.000000
vt 0.874633 0.000000
vt 0.874633 0.025000
vt 0.874633 0.025000
vt 0.625000 0.025000
vt 0.625000 0.000000
vt 0.375000 0.025000
vt 0.375000 0.000000
vt 0.125367 0.025000
vt 0.125367 0.025000
vt 0.125367 0.000000
vt 0.125367 0.000000
vt 0.375000 0.474669
vt 0.849669 0.250000
vt 0.849698 0.025000
vt 0.849669 0.025000
vt 0.849669 0.020001
vt 0.849669 0.004999
vt 0.849669 0.000000
vt 0.849698 0.000000
vt 0.625000 0.775330
vt 0.849669 0.000000
vt 0.150330 0.000000
vt 0.375000 0.775330
vt 0.150302 0.000000
vt 0.150330 0.000000
vt 0.150330 0.004999
vt 0.150330 0.020001
vt 0.150330 0.025000
vt 0.625000 0.474669
vt 0.150330 0.250000
vt 0.150302 0.025000
vt 0.150330 0.025000
vt 0.150330 0.020001
vt 0.150330 0.004999
vt 0.150330 0.000000
vt 0.150302 0.000000
vt 0.375000 0.775330
vt 0.150330 0.000000
vt 0.849669 0.000000
vt 0.625000 0.775330
vt 0.849698 0.000000
vt 0.849669 0.000000
vt 0.849669 0.004999
vt 0.849669 0.020001
vt 0.849669 0.025000
vt 0.849669 0.025000
vt 0.849698 0.025000
vt 0.849669 0.025000
vt 0.874633 0.025000
vt 0.150330 0.025000
vt 0.150302 0.025000
vt 0.150330 0.025000
vt 0.125367 0.025000
vt 0.857160 0.250000
vt 0.857160 0.025000
vt 0.857160 0.025000
vt 0.625000 0.474669
vt 0.375000 0.482160
vt 0.857160 0.250000
vt 0.150330 0.250000
vt 0.375000 0.474669
vt 0.625000 0.482160
vt 0.849669 0.250000
vt 0.142840 0.250000
vt 0.874633 0.025000
vt 0.125367 0.025000
vt 0.142840 0.025000
vt 0.142840 0.250000
vt 0.142840 0.025000
vt 0.375000 0.482160
vt 0.625000 0.482160
vt 0.375000 0.490897
vt 0.134103 0.250000
vt 0.375000 0.499633
vt 0.375000 0.499633
vt 0.125367 0.250000
vt 0.125367 0.250000
vt 0.625000 0.490897
vt 0.865897 0.250000
vt 0.625000 0.499633
vt 0.625000 0.499633
vt 0.874633 0.250000
vt 0.874633 0.250000
vt 0.874633 0.025000
vt 0.866001 0.025303
vt 0.134000 0.133717
vt 0.125367 0.250000
vt 0.827202 0.250000
vt 0.625000 0.452203
vt 0.375000 0.452203
vt 0.172797 0.250000
vt 0.172797 0.025000
vt 0.172743 0.025000
vt 0.172797 0.025000
vt 0.172797 0.020001
vt 0.172797 0.004999
vt 0.172797 0.000000
vt 0.172743 0.000000
vt 0.375000 0.797797
vt 0.172797 0.000000
vt 0.827202 0.000000
vt 0.625000 0.797797
vt 0.827257 0.000000
vt 0.827202 0.000000
vt 0.827202 0.004999
vt 0.827202 0.020001
vt 0.827202 0.025000
vt 0.827257 0.025000
vt 0.827202 0.025000
vt 0.172797 0.250000
vt 0.375000 0.452203
vt 0.625000 0.452203
vt 0.827202 0.250000
vt 0.827202 0.025000
vt 0.827257 0.025000
vt 0.827202 0.025000
vt 0.827202 0.020001
vt 0.827202 0.004999
vt 0.827202 0.000000
vt 0.827257 0.000000
vt 0.625000 0.797797
vt 0.827202 0.000000
vt 0.172797 0.000000
vt 0.375000 0.797797
vt 0.172743 0.000000
vt 0.172797 0.000000
vt 0.172797 0.004999
vt 0.172797 0.020001
vt 0.172797 0.025000
vt 0.172743 0.025000
vt 0.172797 0.025000
vn 0.000000 0.000001 1.000000
vn 0.000000 0.000001 1.000000
vn 0.000000 0.000001 1.000000
vn 0.000000 0.000001 1.000000
vn 0.000000 -1.000000 0.000000
vn 0.000000 -1.000000 0.000000
vn 0.000000 -1.000000 -0.000004
vn 0.000000 -1.000000 -0.000004
vn 0.000000 0.000000 -1.000000
vn 0.000000 0.000000 -1.000000
vn 0.000000 0.000000 -1.000000
vn 0.000000 0.000000 -1.000000
vn 0.000000 -1.000000 0.000000
vn 0.000000 -1.000000 0.000000
vn 0.000000 -0.061877 0.998084
vn 0.000000 -0.382730 0.923860
vn 0.000000 -0.382730 0.923860
vn 0.000000 -0.061880 0.998084
vn 0.000000 -0.923859 0.382733
vn -0.019189 -0.999229 0.034239
vn 0.019188 -0.999229 0.034239
vn 0.000000 -0.923859 0.382733
vn 0.000000 0.047460 0.998873
vn 0.000000 1.000000 0.000000
vn 0.000000 1.000000 0.000000
vn 0.000000 0.047454 0.998873
vn 0.000000 1.000000 0.000000
vn -0.083075 0.992851 -0.085700
vn 0.083076 0.992851 -0.085702
vn 0.000000 1.000000 0.000000
vn 0.995481 0.094960 0.000002
vn 0.997020 -0.077142 0.000000
vn 0.997027 -0.077050 0.000000
vn 0.995518 0.094578 0.000000
vn 0.997020 -0.077146 0.000000
vn 0.995483 0.094945 -0.000002
vn 0.000000 -0.061891 -0.998083
vn 0.000000 0.047471 -0.998873
vn 0.000000 0.047476 -0.998872
vn 0.000000 -0.061893 -0.998083
vn -0.995515 0.094605 0.000000
vn -0.995481 0.094961 0.000000
vn -0.997019 -0.077161 0.000000
vn -0.997026 -0.077068 0.000000
vn -0.997018 -0.077165 0.000000
vn -0.995479 0.094981 0.000000
vn 0.000000 -1.000000 -0.000000
vn -0.000000 -1.000000 -0.000000
vn -0.067305 0.987785 -0.140537
vn 0.067305 0.987785 -0.140536
vn 0.015036 -0.999887 0.000000
vn 0.015129 -0.999886 -0.000000
vn -0.154264 0.988030 -0.000000
vn -0.157630 0.987489 -0.004278
vn -0.227939 0.973675 0.000000
vn 0.015038 -0.999887 -0.000000
vn 0.067305 0.987785 0.140536
vn -0.067305 0.987785 0.140536
vn -0.083073 0.992853 0.085689
vn 0.083074 0.992852 0.085690
vn 0.000000 -1.000000 0.000000
vn 0.000000 -1.000000 0.000000
vn -0.019190 -0.999229 -0.034243
vn 0.019190 -0.999229 -0.034243
vn -0.015036 -0.999887 0.000000
vn -0.015127 -0.999886 0.000000
vn 0.167596 0.985856 0.000001
vn 0.160346 0.987016 -0.009419
vn 0.000023 1.000000 0.000000
vn -0.015036 -0.999887 0.000000
vn 0.923904 -0.382624 0.000000
vn 0.923890 -0.382659 0.000000
vn 0.382654 -0.923892 0.000000
vn 0.382646 -0.923895 -0.000009
vn -0.150998 0.988514 0.006275
vn -0.000047 1.000000 0.000015
vn -0.000075 1.000000 -0.000006
vn -0.148320 0.988939 -0.000000
vn -0.000000 1.000000 0.000016
vn 0.000000 1.000000 0.000000
vn 0.923876 -0.382692 0.000000
vn 0.382655 -0.923891 -0.000004
vn -0.000047 1.000000 -0.000014
vn -0.150996 0.988515 -0.006269
vn -0.000069 1.000000 -0.000016
vn 0.000000 1.000000 -0.000138
vn 0.000000 1.000000 -0.000138
vn 0.000000 1.000000 0.000332
vn 0.000000 1.000000 0.000332
vn 0.000000 -0.382789 -0.923836
vn 0.000000 -0.382789 -0.923836
vn 0.000000 -0.923849 -0.382758
vn 0.000000 -0.923849 -0.382758
vn 0.156078 0.987651 0.013648
vn 0.000000 1.000000 0.000000
vn 0.000000 1.000000 0.000000
vn 0.165099 0.986277 0.000000
vn 0.000000 1.000000 0.000000
vn 0.000000 1.000000 0.000000
vn -0.923869 -0.382708 0.000000
vn -0.923866 -0.382717 0.000000
vn -0.382691 -0.923877 0.000000
vn -0.382693 -0.923876 0.000000
vn 0.000000 1.000000 0.000000
vn 0.000000 1.000000 0.000000
vn 0.156078 0.987651 -0.013648
vn -0.382692 -0.923876 0.000000
vn -0.923860 -0.382732 0.000000
vn 0.000000 0.999839 -0.017971
vn 0.000000 0.999839 -0.017971
vn 0.000000 0.791652 -0.610973
vn 0.000000 0.791652 -0.610973
vn 1.000000 0.000000 0.000000
vn 1.000000 0.000000 0.000000
vn 1.000000 0.000000 0.000000
vn 1.000000 0.000000 0.000000
vn -0.157633 0.987489 0.004284
vn -0.158473 0.987363 0.000001
vn -0.153065 0.988216 0.000001
vn -0.000038 1.000000 0.000001
vn 0.000000 1.000000 0.000001
vn 0.995254 0.097310 0.000000
vn 0.996976 -0.077716 0.000000
vn 0.923965 -0.382477 0.000000
vn 0.382605 -0.923912 -0.000000
vn 0.014461 -0.999895 -0.000000
vn -0.000000 -1.000000 0.000000
vn 0.000000 -1.000000 0.000000
vn -0.014461 -0.999895 -0.000000
vn -0.382722 -0.923864 -0.000000
vn -0.923882 -0.382678 0.000000
vn -0.996972 -0.077760 0.000000
vn -0.995249 0.097358 0.000000
vn -0.000000 1.000000 0.000000
vn 0.000036 1.000000 -0.000000
vn 0.153067 0.988216 0.000000
vn 0.158473 0.987363 0.000000
vn -1.000000 0.000001 -0.000004
vn -1.000000 0.000001 -0.000004
vn -1.000000 0.000001 -0.000001
vn -1.000000 0.000001 -0.000001
vn 0.000000 0.999839 0.017971
vn 0.000000 0.999839 0.017971
vn 0.000000 0.791657 0.610966
vn 0.000000 0.791657 0.610966
vn -1.000000 0.000001 0.000003
vn -1.000000 0.000001 0.000003
vn -1.000000 0.000000 0.000001
vn -1.000000 0.000000 0.000001
vn 0.160345 0.987016 0.009419
vn 0.158472 0.987364 -0.000000
vn 0.153066 0.988216 -0.000000
vn 0.000000 1.000000 -0.000000
vn 0.000000 1.000000 0.000000
vn -0.995248 0.097370 -0.000000
vn -0.996972 -0.077760 -0.000000
vn -0.923887 -0.382666 -0.000000
vn -0.382721 -0.923864 -0.000000
vn -0.014464 -0.999895 -0.000000
vn 0.000000 -1.000000 0.000000
vn 0.000000 -1.000000 0.000000
vn 0.014463 -0.999895 0.000000
vn 0.382633 -0.923901 0.000000
vn 0.923993 -0.382410 -0.000000
vn 0.996977 -0.077697 -0.000000
vn 0.995257 0.097278 -0.000000
vn -0.000091 1.000000 -0.000001
vn -0.000001 1.000000 -0.000001
vn -0.153064 0.988216 -0.000001
vn -0.158473 0.987363 -0.000001
vn 1.000000 0.000000 0.000000
vn 1.000000 0.000000 0.000000
vn 1.000000 0.000000 0.000000
vn 1.000000 0.000000 0.000000
vn 1.000000 0.000000 0.000000
vn 1.000000 0.000000 0.000000
vn 1.000000 0.000000 0.000000
vn 1.000000 0.000000 0.000000
vn 1.000000 0.000000 0.000000
vn 1.000000 0.000000 0.000000
vn 1.000000 0.000000 0.000000
vn 1.000000 0.000000 0.000000
vn 0.000000 0.339700 -0.940534
vn 0.000000 0.339700 -0.940534
vn 0.000000 0.405024 -0.914306
vn 0.000000 0.405024 -0.914306
vn -1.000000 0.000001 -0.000002
vn -1.000000 0.000002 -0.000002
vn 0.000000 0.339697 0.940535
vn 0.000000 0.339697 0.940535
vn 0.000000 0.405018 0.914309
vn 0.000000 0.405018 0.914309
vn -1.000000 0.000001 0.000000
vn -1.000000 0.000001 0.000000
vn -0.227939 0.973676 0.000000
vn -0.227939 0.973675 0.000000
vn -0.227950 0.973673 0.000000
vn 0.000023 1.000000 0.000042
vn 0.000023 1.000000 0.000042
vn 0.000023 1.000000 0.000000
vn -1.000000 0.000001 -0.000008
vn -1.000000 0.000001 -0.000008
vn -1.000000 0.000002 -0.000008
vn -1.000000 0.000002 -0.000008
vn 0.000000 0.980157 0.198224
vn 0.000000 0.980157 0.198224
vn 0.000000 1.000000 0.000000
vn 0.000000 1.000000 0.000000
vn 0.000000 1.000000 0.000000
vn 0.000000 1.000000 0.000000
vn 0.000000 0.980158 -0.198217
vn 0.000000 0.980158 -0.198217
vn 0.000000 1.000000 -0.000000
vn 0.000000 1.000000 -0.000000
vn -1.000000 0.000000 0.000001
vn -1.000000 0.000000 0.000001
vn 0.000000 1.000000 -0.000000
vn 0.000000 1.000000 0.000000
vn -0.998873 0.047453 -0.000000
vn -0.998084 -0.061875 -0.000000
vn -0.923888 -0.382664 -0.000000
vn -0.382723 -0.923863 -0.000000
vn 0.382632 -0.923901 0.000000
vn 0.923998 -0.382398 -0.000000
vn 0.998087 -0.061820 -0.000000
vn 0.998876 0.047409 -0.000000
vn -0.000091 1.000000 0.000000
vn 0.000000 1.000000 -0.000000
vn 1.000000 0.000000 0.000000
vn 1.000000 0.000000 0.000000
vn 0.000000 1.000000 0.000000
vn 0.000000 1.000000 0.000000
vn 1.000000 0.000000 0.000000
vn 1.000000 0.000000 0.000000
vn -0.000038 1.000000 0.000000
vn 0.000000 1.000000 -0.000000
vn 0.998875 0.047427 0.000000
vn 0.998086 -0.061840 0.000000
vn 0.923968 -0.382470 0.000000
vn 0.382602 -0.923913 -0.000000
vn -0.382723 -0.923863 -0.000000
vn -0.923883 -0.382676 0.000000
vn -0.998084 -0.061876 0.000000
vn -0.998873 0.047456 0.000000
vn -0.000000 1.000000 0.000000
vn 0.000038 1.000000 -0.000000
vn -1.000000 0.000001 -0.000001
vn -1.000000 0.000001 -0.000001
s off
g pCube1
f 11/25/1 12/29/2 4/2/3 3/1/4
s 1
f 5/8/5 6/5/6 60/67/7 61/70/8
s off
f 13/33/9 14/37/10 9/7/11 10/6/12
s 1
f 5/8/5 78/84/13 79/87/14 6/5/6
s 2
f 17/22/15 16/43/16 19/44/17 18/11/18
s 1
f 16/43/19 15/24/20 20/28/21 19/44/22
s 2
f 23/14/23 22/45/24 25/46/25 24/12/26
s 4
f 22/45/27 21/26/28 26/40/29 25/46/30
s 2
f 17/22/15 18/11/18 23/14/23 24/12/26
s 5
f 56/63/31 57/64/32 27/13/33 32/16/34
f 82/90/35 83/91/36 32/16/34 27/13/33
s 6
f 42/17/37 41/19/38 35/18/39 36/15/40
s 7
f 47/21/41 74/80/42 75/81/43 48/20/44
f 64/73/45 65/74/46 47/21/41 48/20/44
s 1
f 1/41/47 2/23/48 20/28/21 15/24/20
s 4
f 12/29/49 11/25/50 26/40/29 21/26/28
s 1
f 59/66/51 60/68/7 6/27/6 29/32/52
s 4
f 96/112/53 86/95/54 97/102/55
s 1
f 6/27/6 79/86/14 80/88/56 29/32/52
s 4
f 14/37/57 13/33/58 33/30/59 39/34/60
s 1
f 8/31/61 7/35/62 44/39/63 38/36/64
f 77/83/65 78/85/13 5/38/5 50/42/66
s 4
f 101/113/67 68/99/68 102/116/69
s 1
f 5/38/5 61/69/8 62/71/70 50/42/66
s 5
f 57/64/32 58/65/71 28/48/72 27/13/33
s 1
f 58/65/73 59/66/51 29/32/52 28/48/74
s 4
f 54/61/75 55/62/76 31/50/77 30/96/78
s 5
f 55/62/79 56/63/31 32/16/34 31/50/80
f 27/13/33 28/47/72 81/89/81 82/90/35
s 1
f 28/47/74 29/32/52 80/88/56 81/89/82
s 4
f 30/96/78 31/49/77 84/92/83 85/94/84
s 5
f 31/49/80 32/16/34 83/91/36 84/92/85
s 4
f 33/30/59 34/51/86 40/53/87 39/34/60
s 6
f 34/51/88 35/18/39 41/19/38 40/53/89
f 36/15/40 37/52/90 43/54/91 42/17/37
s 1
f 37/52/92 38/36/64 44/39/63 43/54/93
s 4
f 72/78/94 73/79/95 46/56/96 45/100/97
s 7
f 73/79/98 74/80/42 47/21/41 46/56/99
f 75/81/43 76/82/100 49/58/101 48/20/44
s 1
f 76/82/102 77/83/65 50/42/66 49/58/103
s 7
f 65/74/46 66/75/104 46/55/99 47/21/41
s 4
f 66/75/105 67/98/106 45/100/97 46/55/96
s 1
f 62/71/70 63/72/107 49/57/103 50/42/66
s 7
f 63/72/108 64/73/45 48/20/44 49/57/101
s 14
f 123/158/109 124/159/110 52/104/111 51/59/112
s 15
f 124/160/113 125/161/114 53/93/115 52/60/116
s 4
f 54/61/75 53/93/117 125/161/118 126/162/119
f 126/162/119 127/163/120 55/62/76 54/61/75
s 5
f 127/163/121 128/164/122 56/63/31 55/62/79
f 128/164/122 129/165/123 57/64/32 56/63/31
f 129/165/123 130/166/124 58/65/71 57/64/32
s 1
f 130/166/125 131/167/126 59/66/51 58/65/73
f 131/167/126 132/169/127 60/68/7 59/66/51
f 61/70/8 60/67/7 132/168/127 133/171/128
f 62/71/70 61/69/8 133/170/128 134/172/129
f 134/172/129 135/173/130 63/72/107 62/71/70
s 7
f 135/173/131 136/174/132 64/73/45 63/72/108
f 136/174/132 137/175/133 65/74/46 64/73/45
f 137/175/133 138/176/134 66/75/104 65/74/46
s 4
f 138/176/135 139/177/136 67/98/106 66/75/105
f 139/177/136 140/178/137 68/99/68 67/98/106
s 16
f 51/107/138 68/99/139 140/178/140 123/157/141
s 17
f 105/136/142 106/137/143 70/108/144 69/76/145
s 16
f 71/97/146 70/77/147 106/138/148 107/139/149
s 4
f 72/78/94 71/97/150 107/139/151 108/140/152
f 108/140/152 109/141/153 73/79/95 72/78/94
s 7
f 109/141/154 110/142/155 74/80/42 73/79/98
f 75/81/43 74/80/42 110/142/155 111/143/156
f 111/143/156 112/144/157 76/82/100 75/81/43
s 1
f 112/144/158 113/145/159 77/83/65 76/82/102
f 113/145/159 114/147/160 78/85/13 77/83/65
f 79/87/14 78/84/13 114/146/160 115/149/161
f 80/88/56 79/86/14 115/148/161 116/150/162
f 81/89/82 80/88/56 116/150/162 117/151/163
s 5
f 82/90/35 81/89/81 117/151/164 118/152/165
f 118/152/165 119/153/166 83/91/36 82/90/35
f 84/92/85 83/91/36 119/153/166 120/154/167
s 4
f 85/94/84 84/92/83 120/154/168 121/155/169
f 121/155/169 122/156/170 86/95/54 85/94/84
s 15
f 69/110/171 86/95/172 122/156/173 105/135/174
s 4
f 96/112/53 53/93/117 54/61/75 30/96/78
f 101/113/67 71/97/150 72/78/94 45/100/97
s 15
f 94/101/175 93/130/176 98/131/177 97/102/178
f 93/129/176 92/126/179 99/132/180 98/131/177
f 92/126/179 91/106/181 95/103/182 99/132/180
s 21
f 51/59/183 52/104/184 91/118/185 87/105/186
s 15
f 52/60/116 53/93/115 95/103/182 91/106/181
s 16
f 87/115/187 102/116/188 68/99/139 51/107/138
s 22
f 69/76/189 70/108/190 90/117/191 94/109/192
s 15
f 94/101/175 97/102/178 86/95/172 69/110/171
s 16
f 90/111/193 70/77/147 71/97/146 100/114/194
s 4
f 96/112/53 97/102/55 98/131/195
f 96/112/53 98/131/195 99/132/196
f 96/112/53 99/132/196 95/103/197
f 101/113/67 102/116/69 103/133/198
f 101/113/67 103/133/198 104/134/199
f 101/113/67 104/134/199 100/114/200
s 16
f 89/123/201 90/111/193 100/114/194 104/134/202
f 87/115/187 88/120/203 103/133/204 102/116/188
f 88/120/203 89/124/201 104/134/202 103/133/204
s 22
f 90/117/191 89/122/205 93/127/206 94/109/192
s off
f 89/121/207 88/119/208 92/125/209 93/128/210
s 21
f 88/119/211 87/105/186 91/118/185 92/125/212
s 17
f 9/7/213 106/137/143 105/136/142 10/6/214
s 16
f 107/139/149 106/138/148 9/7/215 14/37/216
s 4
f 108/140/152 107/139/151 14/37/57 39/34/60
f 39/34/60 40/53/217 109/141/153 108/140/152
s 7
f 40/53/218 41/19/219 110/142/155 109/141/154
f 111/143/156 110/142/155 41/19/219 42/17/220
f 42/17/220 43/54/221 112/144/157 111/143/156
s 1
f 43/54/222 44/39/63 113/145/159 112/144/158
f 7/35/62 114/147/160 113/145/159 44/39/63
f 115/149/161 114/146/160 7/10/62 8/9/61
f 116/150/162 115/148/161 8/31/61 38/36/64
f 117/151/163 116/150/162 38/36/64 37/52/223
s 5
f 118/152/165 117/151/164 37/52/224 36/15/225
f 36/15/225 35/18/226 119/153/166 118/152/165
f 120/154/167 119/153/166 35/18/226 34/51/227
s 4
f 121/155/169 120/154/168 34/51/228 33/30/59
f 13/33/58 122/156/170 121/155/169 33/30/59
s 15
f 105/135/174 122/156/173 13/33/229 10/6/230
s 14
f 3/1/231 4/2/232 124/159/110 123/158/109
s 15
f 12/29/233 125/161/114 124/160/113 4/2/234
s 4
f 126/162/119 125/161/118 12/29/49 21/26/28
f 21/26/28 22/45/235 127/163/120 126/162/119
s 5
f 22/45/236 23/14/237 128/164/122 127/163/121
f 18/11/238 129/165/123 128/164/122 23/14/237
f 18/11/238 19/44/239 130/166/124 129/165/123
s 1
f 19/44/240 20/28/21 131/167/126 130/166/125
f 2/23/48 132/169/127 131/167/126 20/28/21
f 133/171/128 132/168/127 2/4/48 1/3/47
f 134/172/129 133/170/128 1/41/47 15/24/20
f 15/24/20 16/43/241 135/173/130 134/172/129
s 7
f 16/43/242 17/22/243 136/174/132 135/173/131
f 24/12/244 137/175/133 136/174/132 17/22/243
f 24/12/244 25/46/245 138/176/134 137/175/133
s 4
f 25/46/246 26/40/29 139/177/136 138/176/135
f 11/25/50 140/178/137 139/177/136 26/40/29
s 16
f 123/157/141 140/178/140 11/25/247 3/1/248
s 4
f 67/98/106 68/99/68 101/113/67 45/100/97
f 101/113/67 100/114/200 71/97/150
f 85/94/84 86/95/54 96/112/53 30/96/78
f 96/112/53 95/103/197 53/93/117
