# This file uses centimeters as units for non-parametric coordinates.

mtllib Alcaparra.mtl
g default
v 0.148778 0.027453 -0.048341
v 0.091950 0.027453 -0.126558
v 0.000000 0.027453 -0.156435
v -0.091950 0.027453 -0.126558
v -0.148778 0.027453 -0.048341
v -0.148778 0.027453 0.048341
v -0.091950 0.027453 0.126558
v -0.000000 0.027453 0.156434
v 0.091950 0.027453 0.126558
v 0.148778 0.027453 0.048341
v 0.431771 0.243016 -0.140291
v 0.266849 0.243016 -0.367286
v 0.000000 0.243016 -0.453991
v -0.266849 0.243016 -0.367286
v -0.431771 0.243016 -0.140291
v -0.431771 0.243016 0.140291
v -0.266849 0.243016 0.367286
v -0.000000 0.243016 0.453991
v 0.266849 0.243016 0.367286
v 0.431771 0.243016 0.140291
v 0.672499 0.653045 -0.218508
v 0.415627 0.653045 -0.572062
v 0.000000 0.653045 -0.707107
v -0.415627 0.653045 -0.572062
v -0.672499 0.653045 -0.218508
v -0.672499 0.653045 0.218508
v -0.415627 0.653045 0.572061
v -0.000000 0.653045 0.707107
v 0.415627 0.653045 0.572061
v 0.672499 0.653045 0.218508
v 0.866855 1.187568 -0.281658
v 0.535746 1.187568 -0.737391
v 0.000000 1.187568 -0.911465
v -0.535746 1.187568 -0.737390
v -0.866854 1.187568 -0.281658
v -0.866854 1.187568 0.281658
v -0.535745 1.187568 0.737390
v -0.000000 1.187568 0.911464
v 0.535745 1.187568 0.737390
v 0.866854 1.187568 0.281658
v 1.017902 1.827669 -0.330736
v 0.629098 1.827669 -0.865879
v 0.000000 1.827669 -1.070285
v -0.629098 1.827669 -0.865879
v -1.017902 1.827669 -0.330736
v -1.017902 1.827669 0.330736
v -0.629098 1.827669 0.865879
v -0.000000 1.827669 1.070285
v 0.629098 1.827669 0.865879
v 1.017902 1.827669 0.330736
v 1.045994 2.516662 -0.339864
v 0.646460 2.516662 -0.889775
v -0.000000 2.516662 -1.099823
v -0.646460 2.516662 -0.889775
v -1.045993 2.516662 -0.339863
v -1.045993 2.516662 0.339864
v -0.646459 2.516662 0.889775
v -0.000000 2.516662 1.099823
v 0.646459 2.516662 0.889775
v 1.045993 2.516662 0.339864
v 0.911111 3.296387 -0.296038
v 0.563098 3.296387 -0.775038
v 0.000000 3.296387 -0.957999
v -0.563098 3.296387 -0.775037
v -0.911111 3.296387 -0.296038
v -0.911111 3.296387 0.296038
v -0.563098 3.296387 0.775037
v -0.000000 3.296387 0.957999
v 0.563097 3.296387 0.775037
v 0.911111 3.296387 0.296038
v 0.826578 3.795298 -0.268571
v 0.510853 3.795298 -0.703129
v -0.000000 3.795298 -0.869115
v -0.510853 3.795298 -0.703129
v -0.826578 3.795298 -0.268571
v -0.826578 3.795298 0.268571
v -0.510853 3.795298 0.703129
v -0.000000 3.795298 0.869115
v 0.510853 3.795298 0.703129
v 0.826578 3.795298 0.268571
v 0.519657 4.255820 -0.168847
v 0.321166 4.255820 -0.442047
v -0.000000 4.255820 -0.546400
v -0.321166 4.255820 -0.442047
v -0.519657 4.255820 -0.168847
v -0.519657 4.255820 0.168847
v -0.321166 4.255820 0.442047
v -0.000000 4.255820 0.546400
v 0.321166 4.255820 0.442047
v 0.519657 4.255820 0.168847
v 0.148823 4.350735 -0.053456
v 0.091995 4.350735 -0.131674
v 0.000045 4.350735 -0.161550
v -0.091905 4.350735 -0.131674
v -0.148733 4.350735 -0.053456
v -0.148733 4.350735 0.043226
v -0.091905 4.350735 0.121443
v 0.000045 4.350735 0.151319
v 0.091995 4.350735 0.121443
v 0.148823 4.350735 0.043226
v 0.000000 0.000000 0.000000
v 0.281996 6.381722 1.397757
v 0.228383 6.455446 1.394136
v 0.141637 6.483584 1.392752
v 0.054889 6.455429 1.394136
v 0.001276 6.381722 1.397755
v 0.001276 6.290615 1.402233
v 0.054889 6.216924 1.405860
v 0.141637 6.188765 1.407237
v 0.228384 6.216915 1.405859
v 0.281996 6.290616 1.402234
v -0.118687 6.004060 0.285460
v -0.173908 6.046294 0.222277
v -0.173908 6.098506 0.144172
v -0.118687 6.140748 0.080983
v -0.029338 6.156883 0.056847
v 0.060011 6.140753 0.080976
v 0.115231 6.098507 0.144172
v 0.115231 6.046294 0.222277
v 0.060011 6.004057 0.285463
v -0.029338 5.987922 0.309595
v 0.529510 6.475675 1.670170
v 0.141647 6.348955 1.659851
v 0.381409 6.679336 1.660166
v 0.141605 6.757124 1.656340
v -0.098047 6.679334 1.660164
v -0.246262 6.475606 1.670167
v -0.246258 6.223899 1.682539
v -0.098044 6.020236 1.692562
v 0.141672 5.942380 1.696370
v 0.381350 6.020201 1.692561
v 0.529523 6.223843 1.682545
vt 0.000000 0.050000
vt 0.100000 0.050000
vt 0.200000 0.050000
vt 0.300000 0.050000
vt 0.400000 0.050000
vt 0.500000 0.050000
vt 0.600000 0.050000
vt 0.700000 0.050000
vt 0.800000 0.050000
vt 0.900000 0.050000
vt 1.000000 0.050000
vt 0.000000 0.150000
vt 0.100000 0.150000
vt 0.200000 0.150000
vt 0.300000 0.150000
vt 0.400000 0.150000
vt 0.500000 0.150000
vt 0.600000 0.150000
vt 0.700000 0.150000
vt 0.800000 0.150000
vt 0.900000 0.150000
vt 1.000000 0.150000
vt 0.000000 0.250000
vt 0.100000 0.250000
vt 0.200000 0.250000
vt 0.300000 0.250000
vt 0.400000 0.250000
vt 0.500000 0.250000
vt 0.600000 0.250000
vt 0.700000 0.250000
vt 0.800000 0.250000
vt 0.900000 0.250000
vt 1.000000 0.250000
vt 0.000000 0.350000
vt 0.100000 0.350000
vt 0.200000 0.350000
vt 0.300000 0.350000
vt 0.400000 0.350000
vt 0.500000 0.350000
vt 0.600000 0.350000
vt 0.700000 0.350000
vt 0.800000 0.350000
vt 0.900000 0.350000
vt 1.000000 0.350000
vt 0.000000 0.450000
vt 0.100000 0.450000
vt 0.200000 0.450000
vt 0.300000 0.450000
vt 0.400000 0.450000
vt 0.500000 0.450000
vt 0.600000 0.450000
vt 0.700000 0.450000
vt 0.800000 0.450000
vt 0.900000 0.450000
vt 1.000000 0.450000
vt 0.000000 0.550000
vt 0.100000 0.550000
vt 0.200000 0.550000
vt 0.300000 0.550000
vt 0.400000 0.550000
vt 0.500000 0.550000
vt 0.600000 0.550000
vt 0.700000 0.550000
vt 0.800000 0.550000
vt 0.900000 0.550000
vt 1.000000 0.550000
vt 0.000000 0.650000
vt 0.100000 0.650000
vt 0.200000 0.650000
vt 0.300000 0.650000
vt 0.400000 0.650000
vt 0.500000 0.650000
vt 0.600000 0.650000
vt 0.700000 0.650000
vt 0.800000 0.650000
vt 0.900000 0.650000
vt 1.000000 0.650000
vt 0.000000 0.750000
vt 0.100000 0.750000
vt 0.200000 0.750000
vt 0.300000 0.750000
vt 0.400000 0.750000
vt 0.500000 0.750000
vt 0.600000 0.750000
vt 0.700000 0.750000
vt 0.800000 0.750000
vt 0.900000 0.750000
vt 1.000000 0.750000
vt 0.000000 0.850000
vt 0.100000 0.850000
vt 0.200000 0.850000
vt 0.300000 0.850000
vt 0.400000 0.850000
vt 0.500000 0.850000
vt 0.600000 0.850000
vt 0.700000 0.850000
vt 0.800000 0.850000
vt 0.900000 0.850000
vt 1.000000 0.850000
vt 0.000000 0.950000
vt 0.100000 0.950000
vt 0.200000 0.950000
vt 0.300000 0.950000
vt 0.400000 0.950000
vt 0.500000 0.950000
vt 0.600000 0.950000
vt 0.700000 0.950000
vt 0.800000 0.950000
vt 0.900000 0.950000
vt 1.000000 0.950000
vt 0.075000 0.000000
vt 0.175000 0.000000
vt 0.275000 0.000000
vt 0.375000 0.000000
vt 0.475000 0.000000
vt 0.575000 0.000000
vt 0.675000 0.000000
vt 0.775000 0.000000
vt 0.875000 0.000000
vt 0.975000 0.000000
vt 0.025000 1.000000
vt 0.125000 1.000000
vt 0.225000 1.000000
vt 0.325000 1.000000
vt 0.425000 1.000000
vt 0.525000 1.000000
vt 0.625000 1.000000
vt 0.725000 1.000000
vt 0.825000 1.000000
vt 0.925000 1.000000
vt 0.000000 0.950000
vt 0.100000 0.950000
vt 0.200000 0.950000
vt 0.300000 0.950000
vt 0.400000 0.950000
vt 0.500000 0.950000
vt 0.600000 0.950000
vt 0.700000 0.950000
vt 0.800000 0.950000
vt 0.900000 0.950000
vt 1.000000 0.950000
vt 0.600000 0.950000
vt 0.500000 0.950000
vt 0.400000 0.950000
vt 0.300000 0.950000
vt 0.200000 0.950000
vt 0.100000 0.950000
vt 1.000000 0.950000
vt 0.000000 0.950000
vt 0.900000 0.950000
vt 0.800000 0.950000
vt 0.700000 0.950000
vt 0.000000 0.950000
vt 0.100000 0.950000
vt 0.200000 0.950000
vt 0.300000 0.950000
vt 0.400000 0.950000
vt 0.500000 0.950000
vt 0.600000 0.950000
vt 0.700000 0.950000
vt 0.800000 0.950000
vt 0.900000 0.950000
vt 1.000000 0.950000
vn 0.760924 -0.599890 -0.247239
vn 0.533520 -0.827832 -0.173351
vn 0.329733 -0.827832 -0.453839
vn 0.470277 -0.599890 -0.647280
vn -0.000000 -0.827832 -0.560976
vn -0.000000 -0.599890 -0.800082
vn -0.329733 -0.827832 -0.453839
vn -0.470277 -0.599890 -0.647280
vn -0.533520 -0.827832 -0.173351
vn -0.760924 -0.599890 -0.247239
vn -0.533520 -0.827832 0.173351
vn -0.760924 -0.599890 0.247239
vn -0.329733 -0.827832 0.453839
vn -0.470277 -0.599890 0.647280
vn 0.000000 -0.827832 0.560976
vn 0.000000 -0.599890 0.800083
vn 0.329733 -0.827832 0.453839
vn 0.470277 -0.599890 0.647280
vn 0.533520 -0.827832 0.173351
vn 0.760924 -0.599890 0.247239
vn 0.865192 -0.415229 -0.281118
vn 0.534718 -0.415229 -0.735976
vn -0.000000 -0.415229 -0.909717
vn -0.534718 -0.415229 -0.735976
vn -0.865192 -0.415229 -0.281118
vn -0.865192 -0.415229 0.281118
vn -0.534718 -0.415229 0.735977
vn 0.000000 -0.415229 0.909717
vn 0.534718 -0.415229 0.735977
vn 0.865192 -0.415229 0.281118
vn 0.911267 -0.286223 -0.296088
vn 0.563194 -0.286223 -0.775170
vn -0.000000 -0.286223 -0.958163
vn -0.563194 -0.286223 -0.775170
vn -0.911267 -0.286223 -0.296089
vn -0.911267 -0.286223 0.296089
vn -0.563194 -0.286223 0.775170
vn 0.000000 -0.286223 0.958163
vn 0.563194 -0.286223 0.775170
vn 0.911267 -0.286223 0.296089
vn 0.942609 -0.132989 -0.306272
vn 0.582564 -0.132990 -0.801831
vn -0.000000 -0.132990 -0.991117
vn -0.582564 -0.132990 -0.801831
vn -0.942609 -0.132989 -0.306272
vn -0.942609 -0.132990 0.306272
vn -0.582564 -0.132990 0.801831
vn 0.000000 -0.132990 0.991118
vn 0.582564 -0.132990 0.801831
vn 0.942609 -0.132990 0.306272
vn 0.948605 0.071750 -0.308220
vn 0.586270 0.071750 -0.806932
vn -0.000000 0.071750 -0.997423
vn -0.586271 0.071750 -0.806932
vn -0.948605 0.071750 -0.308220
vn -0.948605 0.071750 0.308221
vn -0.586270 0.071750 0.806932
vn -0.000000 0.071750 0.997423
vn 0.586270 0.071750 0.806932
vn 0.948605 0.071750 0.308221
vn 0.935917 0.177721 -0.304097
vn 0.578428 0.177721 -0.796138
vn -0.000000 0.177721 -0.984081
vn -0.578428 0.177721 -0.796138
vn -0.935917 0.177721 -0.304098
vn -0.935917 0.177721 0.304098
vn -0.578428 0.177721 0.796138
vn 0.000000 0.177721 0.984081
vn 0.578428 0.177721 0.796138
vn 0.935916 0.177721 0.304098
vn 0.889997 0.352537 -0.289177
vn 0.550048 0.352538 -0.757076
vn -0.000000 0.352537 -0.935798
vn -0.550048 0.352537 -0.757076
vn -0.889997 0.352537 -0.289177
vn -0.889997 0.352537 0.289178
vn -0.550048 0.352537 0.757076
vn 0.000000 0.352537 0.935798
vn 0.550048 0.352537 0.757076
vn 0.889996 0.352537 0.289178
vn 0.694888 0.682809 -0.225618
vn 0.429905 0.682093 -0.591550
vn -0.000002 0.681824 -0.731517
vn -0.429899 0.682108 -0.591537
vn -0.694867 0.682833 -0.225610
vn -0.693983 0.683717 0.225652
vn -0.428469 0.684423 0.589898
vn -0.000001 0.684686 0.728838
vn 0.428475 0.684408 0.589910
vn 0.694004 0.683693 0.225660
vn 0.225654 0.971405 -0.073842
vn 0.140172 0.971044 -0.193455
vn 0.000005 0.970908 -0.239454
vn -0.140148 0.971052 -0.193434
vn -0.225607 0.971417 -0.073830
vn -0.224191 0.971857 0.072329
vn -0.137858 0.972205 0.189241
vn 0.000004 0.972334 0.233595
vn 0.137882 0.972198 0.189260
vn 0.224239 0.971846 0.072342
vn 0.000000 -1.000000 -0.000000
vn -0.000005 0.049084 0.998795
vn -0.038504 0.036541 0.998590
vn -0.023799 0.016319 0.999584
vn -0.000005 0.008603 0.999963
vn 0.023792 0.016316 0.999584
vn 0.038485 0.036539 0.998591
vn 0.038483 0.061574 0.997360
vn 0.023822 0.081777 0.996366
vn 0.000007 0.089460 0.995990
vn -0.023821 0.081765 0.996367
vn -0.038499 0.061554 0.997361
vn 0.546187 0.470607 -0.692971
vn 0.912819 0.222454 -0.342457
vn 0.937483 0.057669 -0.343220
vn 0.554592 0.107781 -0.825113
vn -0.014612 0.567631 -0.823153
vn 0.003050 0.119279 -0.992856
vn -0.577181 0.479611 -0.660935
vn -0.548872 0.090245 -0.831021
vn -0.930761 0.245637 -0.270827
vn -0.935015 0.027288 -0.353557
vn -0.977013 -0.065029 0.203021
vn -0.953575 -0.044786 0.297808
vn -0.676228 -0.384675 0.628284
vn -0.574066 -0.090306 0.813814
vn -0.013721 -0.568193 0.822781
vn 0.003230 -0.097184 0.995261
vn 0.680923 -0.443179 0.583040
vn 0.576706 -0.070063 0.813942
vn 0.986524 -0.116798 0.114581
vn 0.952417 -0.012610 0.304538
vn -0.938080 -0.283195 -0.199514
vn -0.548336 -0.822099 -0.153234
vn -0.879663 0.374258 -0.293468
vn -0.485582 0.787223 -0.380118
vn 0.013956 0.899518 -0.436660
vn 0.506476 0.731010 -0.457282
vn 0.860528 0.276357 -0.427923
vn 0.877242 -0.335561 -0.343285
vn 0.536961 -0.807434 -0.244382
vn 0.015963 -0.984505 -0.174627
vn 0.692762 0.191145 -0.695374
vn 0.428111 0.554929 -0.713284
vn -0.000020 0.693888 -0.720083
vn -0.428170 0.554945 -0.713236
vn -0.692735 0.191230 -0.695377
vn -0.692732 -0.258533 -0.673263
vn -0.428188 -0.622260 -0.655322
vn -0.000033 -0.761145 -0.648582
vn 0.428165 -0.622210 -0.655384
vn 0.692748 -0.258451 -0.673278
s 1
g pSphere3
usemtl initialShadingGroup
f 11/12/1 1/1/2 2/2/3 12/13/4
f 12/13/4 2/2/3 3/3/5 13/14/6
f 13/14/6 3/3/5 4/4/7 14/15/8
f 14/15/8 4/4/7 5/5/9 15/16/10
f 15/16/10 5/5/9 6/6/11 16/17/12
f 16/17/12 6/6/11 7/7/13 17/18/14
f 17/18/14 7/7/13 8/8/15 18/19/16
f 18/19/16 8/8/15 9/9/17 19/20/18
f 19/20/18 9/9/17 10/10/19 20/21/20
f 20/21/20 10/10/19 1/11/2 11/22/1
f 21/23/21 11/12/1 12/13/4 22/24/22
f 22/24/22 12/13/4 13/14/6 23/25/23
f 23/25/23 13/14/6 14/15/8 24/26/24
f 24/26/24 14/15/8 15/16/10 25/27/25
f 25/27/25 15/16/10 16/17/12 26/28/26
f 26/28/26 16/17/12 17/18/14 27/29/27
f 27/29/27 17/18/14 18/19/16 28/30/28
f 28/30/28 18/19/16 19/20/18 29/31/29
f 29/31/29 19/20/18 20/21/20 30/32/30
f 30/32/30 20/21/20 11/22/1 21/33/21
f 31/34/31 21/23/21 22/24/22 32/35/32
f 32/35/32 22/24/22 23/25/23 33/36/33
f 33/36/33 23/25/23 24/26/24 34/37/34
f 34/37/34 24/26/24 25/27/25 35/38/35
f 35/38/35 25/27/25 26/28/26 36/39/36
f 36/39/36 26/28/26 27/29/27 37/40/37
f 37/40/37 27/29/27 28/30/28 38/41/38
f 38/41/38 28/30/28 29/31/29 39/42/39
f 39/42/39 29/31/29 30/32/30 40/43/40
f 40/43/40 30/32/30 21/33/21 31/44/31
f 41/45/41 31/34/31 32/35/32 42/46/42
f 42/46/42 32/35/32 33/36/33 43/47/43
f 43/47/43 33/36/33 34/37/34 44/48/44
f 44/48/44 34/37/34 35/38/35 45/49/45
f 45/49/45 35/38/35 36/39/36 46/50/46
f 46/50/46 36/39/36 37/40/37 47/51/47
f 47/51/47 37/40/37 38/41/38 48/52/48
f 48/52/48 38/41/38 39/42/39 49/53/49
f 49/53/49 39/42/39 40/43/40 50/54/50
f 50/54/50 40/43/40 31/44/31 41/55/41
f 51/56/51 41/45/41 42/46/42 52/57/52
f 52/57/52 42/46/42 43/47/43 53/58/53
f 53/58/53 43/47/43 44/48/44 54/59/54
f 54/59/54 44/48/44 45/49/45 55/60/55
f 55/60/55 45/49/45 46/50/46 56/61/56
f 56/61/56 46/50/46 47/51/47 57/62/57
f 57/62/57 47/51/47 48/52/48 58/63/58
f 58/63/58 48/52/48 49/53/49 59/64/59
f 59/64/59 49/53/49 50/54/50 60/65/60
f 60/65/60 50/54/50 41/55/41 51/66/51
f 61/67/61 51/56/51 52/57/52 62/68/62
f 62/68/62 52/57/52 53/58/53 63/69/63
f 63/69/63 53/58/53 54/59/54 64/70/64
f 64/70/64 54/59/54 55/60/55 65/71/65
f 65/71/65 55/60/55 56/61/56 66/72/66
f 66/72/66 56/61/56 57/62/57 67/73/67
f 67/73/67 57/62/57 58/63/58 68/74/68
f 68/74/68 58/63/58 59/64/59 69/75/69
f 69/75/69 59/64/59 60/65/60 70/76/70
f 70/76/70 60/65/60 51/66/51 61/77/61
f 71/78/71 61/67/61 62/68/62 72/79/72
f 72/79/72 62/68/62 63/69/63 73/80/73
f 73/80/73 63/69/63 64/70/64 74/81/74
f 74/81/74 64/70/64 65/71/65 75/82/75
f 75/82/75 65/71/65 66/72/66 76/83/76
f 76/83/76 66/72/66 67/73/67 77/84/77
f 77/84/77 67/73/67 68/74/68 78/85/78
f 78/85/78 68/74/68 69/75/69 79/86/79
f 79/86/79 69/75/69 70/76/70 80/87/80
f 80/87/80 70/76/70 61/77/61 71/88/71
f 81/89/81 71/78/71 72/79/72 82/90/82
f 82/90/82 72/79/72 73/80/73 83/91/83
f 83/91/83 73/80/73 74/81/74 84/92/84
f 84/92/84 74/81/74 75/82/75 85/93/85
f 85/93/85 75/82/75 76/83/76 86/94/86
f 86/94/86 76/83/76 77/84/77 87/95/87
f 87/95/87 77/84/77 78/85/78 88/96/88
f 88/96/88 78/85/78 79/86/79 89/97/89
f 89/97/89 79/86/79 80/87/80 90/98/90
f 90/98/90 80/87/80 71/88/71 81/99/81
f 91/100/91 81/89/81 82/90/82 92/101/92
f 92/101/92 82/90/82 83/91/83 93/102/93
f 93/102/93 83/91/83 84/92/84 94/103/94
f 94/103/94 84/92/84 85/93/85 95/104/95
f 95/104/95 85/93/85 86/94/86 96/105/96
f 96/105/96 86/94/86 87/95/87 97/106/97
f 97/106/97 87/95/87 88/96/88 98/107/98
f 98/107/98 88/96/88 89/97/89 99/108/99
f 99/108/99 89/97/89 90/98/90 100/109/100
f 100/109/100 90/98/90 81/99/81 91/110/91
f 2/2/3 1/1/2 101/111/101
f 3/3/5 2/2/3 101/112/101
f 4/4/7 3/3/5 101/113/101
f 5/5/9 4/4/7 101/114/101
f 6/6/11 5/5/9 101/115/101
f 7/7/13 6/6/11 101/116/101
f 8/8/15 7/7/13 101/117/101
f 9/9/17 8/8/15 101/118/101
f 10/10/19 9/9/17 101/119/101
f 1/11/2 10/10/19 101/120/101
s 2
f 123/121/102 122/153/103 124/154/104
f 123/122/102 124/154/104 125/155/105
f 123/123/102 125/155/105 126/156/106
f 123/124/102 126/156/106 127/157/107
f 123/125/102 127/157/107 128/158/108
f 123/126/102 128/158/108 129/159/109
f 123/127/102 129/159/109 130/160/110
f 123/128/102 130/160/110 131/161/111
f 123/129/102 131/161/111 132/162/112
f 123/130/102 132/162/112 122/163/103
s 3
f 117/147/113 118/149/114 91/100/115 92/101/116
f 116/146/117 117/147/113 92/101/116 93/102/118
f 115/145/119 116/146/117 93/102/118 94/103/120
f 114/144/121 115/145/119 94/103/120 95/104/122
f 113/143/123 114/144/121 95/104/122 96/105/124
f 112/142/125 113/143/123 96/105/124 97/106/126
f 121/152/127 112/142/125 97/106/126 98/107/128
f 120/151/129 121/152/127 98/107/128 99/108/130
f 119/150/131 120/151/129 99/108/130 100/109/132
f 118/148/114 119/150/131 100/109/132 91/110/115
f 107/136/133 113/143/123 112/142/125 108/137/134
f 106/135/135 114/144/121 113/143/123 107/136/133
f 105/134/136 115/145/119 114/144/121 106/135/135
f 104/133/137 116/146/117 115/145/119 105/134/136
f 103/132/138 117/147/113 116/146/117 104/133/137
f 102/131/139 118/149/114 117/147/113 103/132/138
f 111/140/140 119/150/131 118/148/114 102/141/139
f 110/139/141 120/151/129 119/150/131 111/140/140
f 109/138/142 121/152/127 120/151/129 110/139/141
f 108/137/134 112/142/125 121/152/127 109/138/142
f 122/153/143 102/131/139 103/132/138 124/154/144
f 124/154/144 103/132/138 104/133/137 125/155/145
f 125/155/145 104/133/137 105/134/136 126/156/146
f 126/156/146 105/134/136 106/135/135 127/157/147
f 127/157/147 106/135/135 107/136/133 128/158/148
f 128/158/148 107/136/133 108/137/134 129/159/149
f 129/159/149 108/137/134 109/138/142 130/160/150
f 130/160/150 109/138/142 110/139/141 131/161/151
f 131/161/151 110/139/141 111/140/140 132/162/152
f 132/162/152 111/140/140 102/141/139 122/163/143
